<?xml version="1.0" encoding="UTF-8"?>
<svg xmlns="http://www.w3.org/2000/svg" style="display:none">
  <symbol id="icon-x" viewBox="0 0 24 24">
    <path d="M18.244 2H21.3l-6.58 7.52L22 22h-5.94l-4.64-6.16L6 22H2.94l7.06-8.06L2 2h6.06l4.16 5.54L18.244 2zm-1.05 17h1.51L8.92 4.97H7.27L17.194 19z"/>
  </symbol>
  <symbol id="icon-facebook" viewBox="0 0 24 24">
    <path d="M22 12a10 10 0 1 0-11.5 9.9v-7h-2v-2.9h2v-2.2c0-2 1.2-3.1 3-3.1 .9 0 1.8.1 1.8.1v2h-1c-1 0-1.3.6-1.3 1.2v1.9h2.2l-.35 2.9h-1.85v7A10 10 0 0 0 22 12"/>
  </symbol>
</svg>
